<?xml version="1.0" standalone="no"?>
<!DOCTYPE svg PUBLIC "-//W3C//DTD SVG 20010904//EN"
 "http://www.w3.org/TR/2001/REC-SVG-20010904/DTD/svg10.dtd">
<svg version="1.0" xmlns="http://www.w3.org/2000/svg"
 width="48.000000pt" height="48.000000pt" viewBox="0 0 48.000000 48.000000"
 preserveAspectRatio="xMidYMid meet">

<g transform="translate(0.000000,48.000000) scale(0.100000,-0.100000)"
fill="#000000" stroke="none">
<path d="M348 189 c-12 -6 -18 -22 -18 -44 0 -28 4 -35 20 -35 13 0 20 7 20
20 0 11 5 20 10 20 6 0 10 -9 10 -20 0 -13 7 -20 20 -20 11 0 20 -4 20 -10 0
-5 -9 -10 -20 -10 -13 0 -20 -7 -20 -20 0 -11 -4 -20 -10 -20 -5 0 -10 9 -10
20 0 13 -7 20 -20 20 -16 0 -20 -7 -20 -35 0 -48 36 -64 89 -38 72 35 78 116
12 160 -37 25 -57 28 -83 12z"/>
<path d="M283 161 c-16 -19 -28 -21 -120 -21 l-103 0 0 -28 c0 -46 15 -52 127
-52 l103 0 -6 30 c-4 20 -1 39 11 56 21 32 13 43 -12 15z"/>
</g>
</svg>
